<svg xmlns="http://www.w3.org/2000/svg" xmlns:xlink="http://www.w3.org/1999/xlink" viewBox="0 0 583.09 165.73"><defs><clipPath id="a" transform="translate(-17.02 -6.84)"><rect width="179.55" height="179.55" style="fill:none"/></clipPath><clipPath id="c" transform="translate(-17.02 -6.84)"><rect x="183.26" y="48.86" width="416.84" height="81.82" style="fill:none"/></clipPath></defs><g style="clip-path:url(#a)"><g style="clip-path:url(#a)"><path d="M89.77,11.31V50.24a.1.1,0,0,0,0,.08L123.42,70a.08.08,0,0,1,0,.15L89.82,89.75a.14.14,0,0,1-.09,0l-34-19.89L21.53,50.54a.08.08,0,0,1,0-.15L89.64,11.24A.08.08,0,0,1,89.77,11.31Z" transform="translate(-17.02 -6.84)" style="fill:none;stroke:#312e81;stroke-miterlimit:10;stroke-width:8.766867897727195px"/><line x1="72.76" y1="4.32" x2="140.84" y2="43.63" style="fill:none;stroke:#312e81;stroke-miterlimit:10;stroke-width:8.766867897727195px"/><path d="M123.55,70.11V110a.12.12,0,0,1,0,.08L89.82,128.28a.1.1,0,0,0,0,.08v39.69a.09.09,0,0,0,.13.08l67.91-38.78a.1.1,0,0,0,.05-.08V50.62a.09.09,0,0,0-.13-.08L123.6,70.09a.1.1,0,0,1-.09,0L89.82,50.32a.08.08,0,0,0-.09,0l-34,19.52a.08.08,0,0,0,0,.07v38.78a.08.08,0,0,0,0,.07l33.89,19.47a.09.09,0,0,0,.13-.08V89.77" transform="translate(-17.02 -6.84)" style="fill:none;stroke:#312e81;stroke-miterlimit:10;stroke-width:8.766867897727195px"/><path d="M21.4,129.58l34.26-20.81a.08.08,0,0,1,.09,0l34,19.51a.07.07,0,0,0,.09,0L123.51,110a.11.11,0,0,1,.08,0l34.13,19.22a.08.08,0,0,1,0,.15l-67.9,38.78h-.09L21.44,129.6a.08.08,0,0,1,0-.07V50.62a.09.09,0,0,1,.13-.08L55.7,69.86" transform="translate(-17.02 -6.84)" style="fill:none;stroke:#312e81;stroke-miterlimit:10;stroke-width:8.766867897727195px"/></g></g><g style="clip-path:url(#c)"><polygon points="168.27 43.82 166.25 55.17 192.09 55.17 180.18 122.49 192.88 122.49 204.79 55.17 230.53 55.17 232.55 43.82 168.27 43.82" style="fill:#312e81"/><g style="clip-path:url(#c)"><path d="M246.09,106c-.45,8.43,5.5,13.93,15.62,13.93,5.62,0,13-2.13,17.08-6l6.29,7.3c-6.85,6.29-17,9.44-25.51,9.44-16,0-25.28-9.55-25.28-24.16,0-19.44,15.28-34,34.83-34,17.87,0,28,10.9,21.92,33.49Zm35.51-9.78c.9-8.77-4.72-13.37-14.05-13.37A20.41,20.41,0,0,0,248,96.18Z" transform="translate(-17.02 -6.84)" style="fill:#312e81"/><path d="M328.46,58,325.65,74h16.19L340,84h-16.3l-4.6,26.41c-1,5.85.9,9.11,6.29,9.11a18.54,18.54,0,0,0,7.42-1.92l1.68,9.89A29.56,29.56,0,0,1,323,130.12c-12.14,0-17.65-6.63-15.4-19.67L312.17,84H301.49l1.8-10H314l2.58-14.83Z" transform="translate(-17.02 -6.84)" style="fill:#312e81"/><path d="M364.09,73.93l-.56,7.3c5.39-7.08,11.91-8.54,17.87-8.54,5.39,0,10.22,1.91,12.81,4.72l-7,10.12c-2.47-2.25-4.94-3.38-9.21-3.38-8,0-15.85,4.95-17.65,15.18l-5.28,30H343.52l9.78-55.4Z" transform="translate(-17.02 -6.84)" style="fill:#312e81"/><path d="M446.47,73.93h11.24c-3.26,18.43-6.52,37-9.78,55.4h-11L438,120.9c-5,7.08-13.71,9.78-20.57,9.78-14.49,0-24.38-8.31-24.38-23.6,0-21.8,16.18-34.39,34.39-34.39,7.86,0,14.83,3.6,17.19,9.44Zm-41.7,30.79c-.22,9.44,6.07,15.29,14.84,15.29,23.94,0,30.9-36.75,7-36.75a21.65,21.65,0,0,0-21.81,21.46" transform="translate(-17.02 -6.84)" style="fill:#312e81"/><path d="M476.81,48.86h28.55a30.45,30.45,0,0,1,10.34,1.63,23.05,23.05,0,0,1,7.53,4.33,18.13,18.13,0,0,1,4.61,6.29,18.58,18.58,0,0,1,1.57,7.53,19.52,19.52,0,0,1-1.18,7,19,19,0,0,1-3.09,5.39,16.83,16.83,0,0,1-4.5,3.82,23.1,23.1,0,0,1-5.28,2.31l-.22.9a20.2,20.2,0,0,1,7.53,6.07,16.17,16.17,0,0,1,3.14,10.22,22.27,22.27,0,0,1-2.36,10.34,23.39,23.39,0,0,1-6.51,7.87,30.37,30.37,0,0,1-9.73,5,40.21,40.21,0,0,1-12.08,1.74H462.54ZM497,115.51a18,18,0,0,0,5.17-.73,13.39,13.39,0,0,0,4.33-2.14,9.93,9.93,0,0,0,2.92-3.48,10.35,10.35,0,0,0,1.07-4.78,9.4,9.4,0,0,0-2.7-7q-2.7-2.7-8-2.7H483.78l-3.6,20.79Zm4.39-33.83A15.12,15.12,0,0,0,510.7,79a9,9,0,0,0,3.54-7.7,8.67,8.67,0,0,0-2.47-6.4,9.44,9.44,0,0,0-7-2.48H489.51l-3.37,19.22Z" transform="translate(-17.02 -6.84)" style="fill:#312e81"/><path d="M547.5,48.86h28.55a30.41,30.41,0,0,1,10.34,1.63,23,23,0,0,1,7.53,4.33,18.13,18.13,0,0,1,4.61,6.29,18.58,18.58,0,0,1,1.57,7.53,19.52,19.52,0,0,1-1.18,7,19,19,0,0,1-3.09,5.39,16.79,16.79,0,0,1-4.49,3.82,23.36,23.36,0,0,1-5.29,2.31l-.22.9a20.2,20.2,0,0,1,7.53,6.07,16.18,16.18,0,0,1,3.15,10.22,22.27,22.27,0,0,1-2.37,10.34,23.39,23.39,0,0,1-6.51,7.87,30.42,30.42,0,0,1-9.72,5,40.33,40.33,0,0,1-12.09,1.74H533.23Zm20.23,66.65a18,18,0,0,0,5.17-.73,13.39,13.39,0,0,0,4.33-2.14,9.93,9.93,0,0,0,2.92-3.48,10.35,10.35,0,0,0,1.07-4.78,9.4,9.4,0,0,0-2.7-7q-2.7-2.7-8-2.7H554.47l-3.59,20.79Zm4.39-33.83A15.12,15.12,0,0,0,581.39,79a9,9,0,0,0,3.54-7.7,8.67,8.67,0,0,0-2.47-6.4,9.44,9.44,0,0,0-7-2.48H560.2l-3.37,19.22Z" transform="translate(-17.02 -6.84)" style="fill:#312e81"/></g></g></svg>