<svg xmlns="http://www.w3.org/2000/svg" viewBox="0 0 667.62 131.04"><path d="M41.4,21.06H0L3.24,2.88h103L103,21.06H61.74L42.66,128.88H22.32Z" style="fill:#312e81"/><path d="M100.62,91.44c-.72,13.5,8.82,22.32,25,22.32,9,0,20.88-3.42,27.36-9.54l10.08,11.7C152.1,126,135.9,131,122.22,131c-25.56,0-40.5-15.3-40.5-38.7,0-31.14,24.48-54.54,55.8-54.54,28.62,0,44.82,17.46,35.1,53.64ZM157.5,75.78c1.44-14-7.56-21.42-22.5-21.42-13.5,0-25.92,7.38-31.32,21.42Z" style="fill:#312e81"/><path d="M232.56,14.58l-4.5,25.74H254l-2.88,16H225l-7.38,42.3c-1.62,9.36,1.44,14.58,10.08,14.58a29.82,29.82,0,0,0,11.88-3.06l2.7,15.84c-6.66,2.7-12.24,4.14-18.54,4.14-19.44,0-28.26-10.62-24.66-31.5l7.38-42.3h-17.1l2.88-16h17.1l4.14-23.76Z" style="fill:#312e81"/><path d="M289.62,40.14l-.9,11.7c8.64-11.34,19.08-13.68,28.62-13.68,8.64,0,16.38,3.06,20.52,7.56L326.7,61.92c-4-3.6-7.92-5.4-14.76-5.4-12.78,0-25.38,7.92-28.26,24.3l-8.46,48.06H256.68l15.66-88.74Z" style="fill:#312e81"/><path d="M421.56,40.14h18c-5.22,29.52-10.44,59.22-15.65,88.74H406.26l1.8-13.5c-7.92,11.34-22,15.66-32.94,15.66-23.22,0-39.06-13.32-39.06-37.8,0-34.92,25.92-55.08,55.08-55.08,12.6,0,23.76,5.76,27.54,15.12ZM354.78,89.46c-.36,15.12,9.72,24.48,23.76,24.48,38.34,0,49.49-58.86,11.16-58.86A34.68,34.68,0,0,0,354.78,89.46Z" style="fill:#312e81"/><path d="M470.16,0h45.72a48.49,48.49,0,0,1,16.56,2.61A36.89,36.89,0,0,1,544.5,9.54a29,29,0,0,1,7.38,10.08,29.77,29.77,0,0,1,2.52,12.06,31.37,31.37,0,0,1-1.89,11.25,30.39,30.39,0,0,1-5,8.64,27.43,27.43,0,0,1-7.2,6.12,37.55,37.55,0,0,1-8.46,3.69l-.36,1.44a32.4,32.4,0,0,1,12.06,9.72q5,6.48,5,16.38a35.79,35.79,0,0,1-3.78,16.56,37.8,37.8,0,0,1-10.44,12.6,48.42,48.42,0,0,1-15.57,8,64.5,64.5,0,0,1-19.35,2.79H447.3Zm32.4,106.74a29.12,29.12,0,0,0,8.28-1.17,21.49,21.49,0,0,0,6.93-3.42,16.3,16.3,0,0,0,4.68-5.58,16.51,16.51,0,0,0,1.71-7.65,15.1,15.1,0,0,0-4.32-11.16c-2.88-2.88-7.15-4.32-12.78-4.32H481.32l-5.76,33.3Zm7-54.18q9.18,0,14.85-4.23T530.1,36a13.92,13.92,0,0,0-4-10.26q-4-4-11.16-4H490.5l-5.4,30.78Z" style="fill:#312e81"/><path d="M583.38,0H629.1a48.53,48.53,0,0,1,16.56,2.61,36.89,36.89,0,0,1,12.06,6.93,29,29,0,0,1,7.38,10.08,29.94,29.94,0,0,1,2.52,12.06,31.37,31.37,0,0,1-1.89,11.25,30.63,30.63,0,0,1-5,8.64,27.43,27.43,0,0,1-7.2,6.12,37.55,37.55,0,0,1-8.46,3.69l-.36,1.44a32.4,32.4,0,0,1,12.06,9.72q5,6.48,5,16.38a35.79,35.79,0,0,1-3.78,16.56,37.8,37.8,0,0,1-10.44,12.6,48.52,48.52,0,0,1-15.57,8,64.5,64.5,0,0,1-19.35,2.79h-52.2Zm32.4,106.74a29.12,29.12,0,0,0,8.28-1.17,21.49,21.49,0,0,0,6.93-3.42,16.3,16.3,0,0,0,4.68-5.58,16.51,16.51,0,0,0,1.71-7.65,15.1,15.1,0,0,0-4.32-11.16c-2.88-2.88-7.15-4.32-12.78-4.32H594.54l-5.76,33.3Zm7-54.18q9.18,0,14.85-4.23T643.32,36a13.92,13.92,0,0,0-4-10.26q-4-4-11.16-4H603.72l-5.4,30.78Z" style="fill:#312e81"/></svg>