<svg xmlns="http://www.w3.org/2000/svg" viewBox="0 0 828.26 945.21"><path d="M512,64.52v222a.5.5,0,0,0,.25.44L703.91,399.45a.51.51,0,0,1,0,.87L512.25,511.85a.5.5,0,0,1-.5,0l-194-113.42L122.81,288.26a.5.5,0,0,1,0-.87L511.25,64.08A.5.5,0,0,1,512,64.52Z" transform="translate(-97.04 -39.02)" style="fill:none;stroke:#312e81;stroke-miterlimit:10;stroke-width:50px"/><line x1="414.96" y1="24.64" x2="803.26" y2="248.81" style="fill:none;stroke:#312e81;stroke-miterlimit:10;stroke-width:50px"/><path d="M704.65,399.88V627.12a.5.5,0,0,1-.26.44L512.26,731.63a.49.49,0,0,0-.26.44V958.44a.5.5,0,0,0,.75.44l387.3-221.17a.5.5,0,0,0,.25-.44V288.69a.5.5,0,0,0-.75-.43L704.9,399.74a.5.5,0,0,1-.5,0L512.25,287a.5.5,0,0,0-.5,0L318,398.29a.5.5,0,0,0-.25.44V619.88a.5.5,0,0,0,.25.44l193.3,111a.5.5,0,0,0,.75-.44V512" transform="translate(-97.04 -39.02)" style="fill:none;stroke:#312e81;stroke-miterlimit:10;stroke-width:50px"/><path d="M122,739l195.4-118.68a.49.49,0,0,1,.51,0L511.76,731.63a.48.48,0,0,0,.49,0L704.41,627.55a.48.48,0,0,1,.48,0L899.53,737.13a.5.5,0,0,1,0,.87L512.25,959.16a.5.5,0,0,1-.5,0l-389.45-220a.51.51,0,0,1-.26-.44v-450a.5.5,0,0,1,.75-.44L317.7,398.43" transform="translate(-97.04 -39.02)" style="fill:none;stroke:#312e81;stroke-miterlimit:10;stroke-width:50px"/></svg>